<?xml version="1.0" encoding="UTF-8"?> <svg xmlns="http://www.w3.org/2000/svg" width="109" height="108" viewBox="0 0 109 108" fill="none"> <path d="M54.1367 6.48082C63.5516 6.47946 72.7555 9.26543 80.5844 14.4864C88.4132 19.7073 94.5152 27.1287 98.1188 35.812C101.722 44.4953 102.666 54.0504 100.829 63.2688C98.9927 72.4873 94.4591 80.955 87.8018 87.6011C81.1444 94.2472 72.6623 98.7731 63.4282 100.606C54.1941 102.44 44.6228 101.498 35.9247 97.9006C27.2267 94.3032 19.7927 88.2115 14.5629 80.3959C9.3331 72.5804 6.54241 63.3921 6.54377 53.9931C6.55836 41.3965 11.5773 29.3201 20.4995 20.4129C29.4218 11.5058 41.5188 6.49539 54.1367 6.48082V6.48082ZM54.1367 4.38359e-07C43.4381 5.25042e-07 32.9798 3.16722 24.0843 9.10112C15.1888 15.035 8.25576 23.4691 4.16189 33.3367C0.0680242 43.2043 -1.00277 54.0622 1.08493 64.5374C3.17263 75.0126 8.32504 84.6344 15.8906 92.1862C23.4561 99.7379 33.095 104.88 43.5882 106.963C54.0814 109.046 64.9576 107.976 74.8415 103.887C84.7253 99.7993 93.1728 92.8769 99.1156 83.9958C105.058 75.1146 108.23 64.6736 108.228 53.9931C108.228 46.9021 106.829 39.8804 104.111 33.3292C101.392 26.7781 97.4078 20.8256 92.3849 15.8118C87.3619 10.798 81.3988 6.82101 74.8362 4.10801C68.2735 1.395 61.2398 -0.000903111 54.1367 4.38359e-07V4.38359e-07Z" fill="#1F2DFF"></path> </svg> 