<?xml version="1.0" encoding="UTF-8"?> <svg xmlns="http://www.w3.org/2000/svg" width="109" height="108" viewBox="0 0 109 108" fill="none"> <path d="M54.0986 4.3841e-07C43.3997 -0.00136026 32.9407 3.1647 24.0443 9.09777C15.1479 15.0308 8.21375 23.4644 4.11883 33.3319C0.0239014 43.1994 -1.04787 54.0576 1.03904 64.5332C3.12596 75.0088 8.27787 84.6313 15.8431 92.1838C23.4084 99.7362 33.0473 104.879 43.5407 106.963C54.0341 109.046 64.9107 107.976 74.7949 103.888C84.6791 99.8002 93.127 92.8778 99.0702 83.9965C105.013 75.1152 108.185 64.6739 108.183 53.9931C108.182 39.6738 102.483 25.9415 92.3403 15.8162C82.1978 5.69095 68.4422 0.00182467 54.0986 4.3841e-07V4.3841e-07Z" fill="#1F2DFF"></path> </svg> 