<?xml version="1.0" encoding="UTF-8"?> <svg xmlns="http://www.w3.org/2000/svg" width="228" height="46" viewBox="0 0 228 46" fill="none"> <path d="M6.56739 4.97927V19.3375H30.1136V24.1534H6.59493V45.0544H0V0.190887H30.6362V5.00679L6.56739 4.97927Z" fill="#1F2DFF"></path> <path d="M51.0332 23.775H45.0779V45.1026H38.483V0.190857H56.8097C62.6825 0.190857 67.1158 1.20449 70.1095 3.23175C73.1032 5.25902 74.6 8.19213 74.6 12.0311C74.6 15.6086 73.2384 18.3606 70.5152 20.2869C67.792 22.2133 63.533 23.3599 57.7381 23.7268L76.9932 45.0888H69.4699L51.0332 23.775ZM45.0779 19.1036H56.0808C60.2848 19.1036 63.3175 18.5509 65.1788 17.4455C67.0493 16.331 67.9845 14.5354 67.9845 12.0448C67.9845 9.55434 67.0493 7.75182 65.1788 6.64416C63.3083 5.5365 60.2825 4.97924 56.0808 4.97924H45.0779V19.1036Z" fill="#1F2DFF"></path> <path d="M83.1757 0.190857H89.7706V45.0544H83.1757V0.190857Z" fill="#1F2DFF"></path> <path d="M107.747 4.97924V19.3375H131.128V24.1534H107.747V40.3211H132.077V45.1369H101.131V0.190857H132.077V5.00676L107.747 4.97924Z" fill="#1F2DFF"></path> <path d="M179.452 0.190857V45.0544H168.249L147.068 2.97032V45.0544H140.474V0.190857H151.676L172.857 42.3369V0.190857H179.452Z" fill="#1F2DFF"></path> <path d="M217.288 2.96343C220.581 4.81909 223.29 7.55971 225.107 10.8753C227.079 14.4874 228.075 18.5521 227.995 22.6673C228.078 26.7741 227.082 30.8306 225.107 34.4319C223.281 37.7307 220.574 40.4559 217.288 42.3024C213.964 44.1541 210.213 45.1029 206.409 45.0544H190.888V0.190844H206.409C210.215 0.151855 213.965 1.10756 217.288 2.96343V2.96343ZM213.76 38.1057C216.172 36.6086 218.114 34.4629 219.365 31.9139C220.771 29.0448 221.478 25.8831 221.428 22.688C221.485 19.4833 220.778 16.3112 219.365 13.4346C218.099 10.8956 216.161 8.75356 213.76 7.2427C211.341 5.75464 208.547 4.98627 205.707 5.02738H197.455V40.3417H205.707C208.549 40.3713 211.341 39.5961 213.76 38.1057V38.1057Z" fill="#1F2DFF"></path> </svg> 