<?xml version="1.0" encoding="UTF-8"?> <svg xmlns="http://www.w3.org/2000/svg" width="270" height="48" viewBox="0 0 270 48" fill="none"> <path d="M8.26985 41.9152C4.39335 38.3375 1.53926 33.7954 0 28.754L5.78889 26.5318C6.81819 30.7659 8.93444 34.6593 11.9293 37.8286C13.2348 39.2514 14.8255 40.3842 16.5981 41.1535C18.3707 41.9227 20.2856 42.3112 22.2183 42.2936C23.967 42.3202 25.7011 41.973 27.3043 41.2754C28.7089 40.6884 29.9315 39.7385 30.8465 38.5234C31.659 37.4232 32.0984 36.0927 32.1008 34.7258C32.1456 33.5919 31.9108 32.4643 31.4169 31.4423C30.9231 30.4202 30.1852 29.5349 29.2684 28.8641C27.3755 27.4377 24.2077 26.22 19.7649 25.2109C14.2287 23.9542 9.9376 22.3145 6.89154 20.2918C3.84548 18.2691 2.32475 15.5172 2.32934 12.036C2.27602 10.4178 2.64114 8.81317 3.38953 7.37678C4.13791 5.9404 5.24431 4.72068 6.60209 3.8352C9.4506 1.87674 13.1261 0.895212 17.6286 0.890625C22.8937 0.890625 27.2583 2.35833 30.7225 5.29373C34.072 8.07869 36.7144 11.6148 38.4341 15.6135L32.9209 17.5399C31.6163 14.1617 29.4496 11.1829 26.6358 8.89878C24.1629 6.84374 21.0528 5.70829 17.8353 5.68588C15.5567 5.58539 13.3079 6.23303 11.4331 7.52968C10.663 8.04859 10.0339 8.75011 9.60207 9.57138C9.17029 10.3927 8.94933 11.308 8.959 12.2355C8.959 14.2169 10.0708 15.8704 12.2945 17.1959C14.5182 18.5214 17.7342 19.6497 21.9427 20.5808C25.2123 21.2016 28.4007 22.1918 31.4461 23.5322C33.6243 24.4679 35.5114 25.9694 36.9111 27.8803C38.174 29.8211 38.8068 32.1033 38.7236 34.4162C38.7689 36.8466 37.9729 39.2183 36.47 41.1309C34.8901 43.0923 32.8263 44.6097 30.4813 45.534C27.8936 46.574 25.1248 47.0908 22.3355 47.0545C16.7258 47.0545 12.0372 45.3414 8.26985 41.9152Z" fill="#1F2DFF"></path> <path d="M53.6785 6.33953V20.6978H77.1097V25.5137H53.6785V41.6813H78.0607V46.4972H47.0488V1.55115H78.0607V6.36705L53.6785 6.33953Z" fill="#1F2DFF"></path> <path d="M94.2009 43.9585C90.9207 41.8775 88.2393 38.9802 86.4204 35.5513C84.5374 31.9887 83.5532 28.0213 83.5532 23.9932C83.5532 19.965 84.5374 15.9977 86.4204 12.435C88.2416 9.00961 90.9226 6.11504 94.2009 4.03472C97.4241 1.96566 101.182 0.880167 105.014 0.911262C108.295 0.864604 111.532 1.67829 114.4 3.27105C117.234 4.87526 119.648 7.12679 121.443 9.84132C123.376 12.7347 124.755 15.9609 125.509 19.3562L119.548 20.7321C118.629 16.1456 116.943 12.4878 114.49 9.75876C113.323 8.42956 111.877 7.37402 110.254 6.66757C108.632 5.96112 106.873 5.62121 105.103 5.67212C102.41 5.67245 99.7874 6.53312 97.6191 8.12823C95.2567 9.83474 93.3823 12.1282 92.1817 14.781C90.8335 17.6685 90.1529 20.8215 90.19 24.0069C90.1538 27.1842 90.8444 30.3279 92.2093 33.1984C93.4313 35.8304 95.3021 38.1099 97.6467 39.8237C99.8059 41.4152 102.419 42.2736 105.103 42.273C106.873 42.3239 108.632 41.984 110.254 41.2775C111.877 40.5711 113.323 39.5155 114.49 38.1863C116.92 35.4619 118.606 31.7926 119.548 27.1786L125.509 28.5545C124.757 31.968 123.368 35.2098 121.416 38.1106C119.618 40.8152 117.217 43.0666 114.4 44.6878C111.536 46.2915 108.297 47.1081 105.014 47.0545C101.185 47.0938 97.4271 46.0179 94.2009 43.9585V43.9585Z" fill="#1F2DFF"></path> <path d="M141.532 43.9587C138.28 41.8803 135.636 38.9797 133.869 35.5515C132.018 31.9936 131.072 28.0364 131.112 24.0277C131.068 19.9879 132.014 15.9986 133.869 12.4076C135.628 8.97407 138.274 6.07171 141.532 4.00045C144.768 1.98203 148.506 0.911804 152.321 0.911804C156.136 0.911804 159.874 1.98203 163.11 4.00045C166.371 6.07477 169.023 8.97588 170.794 12.4076C172.678 15.9898 173.644 19.982 173.606 24.0277C173.641 28.0425 172.675 32.0029 170.794 35.5515C169.015 38.9778 166.365 41.877 163.11 43.9587C159.882 45.999 156.141 47.0823 152.321 47.0823C148.501 47.0823 144.76 45.999 141.532 43.9587V43.9587ZM159.774 39.8307C162.079 38.1127 163.902 35.831 165.067 33.2054C166.34 30.3017 166.997 27.1664 166.997 23.9968C166.997 20.8272 166.34 17.6918 165.067 14.7881C163.91 12.1502 162.086 9.8577 159.774 8.13524C157.63 6.53568 155.025 5.67137 152.349 5.67137C149.672 5.67137 147.067 6.53568 144.923 8.13524C142.611 9.8577 140.787 12.1502 139.63 14.7881C138.358 17.6918 137.7 20.8272 137.7 23.9968C137.7 27.1664 138.358 30.3017 139.63 33.2054C140.795 35.831 142.618 38.1127 144.923 39.8307C147.071 41.4209 149.674 42.2793 152.349 42.2793C155.023 42.2793 157.626 41.4209 159.774 39.8307V39.8307Z" fill="#1F2DFF"></path> <path d="M221.22 1.55115V46.4422H209.973L188.747 4.35125V46.4422H182.138V1.55115H193.371L214.59 43.6971V1.55115H221.22Z" fill="#1F2DFF"></path> <path d="M259.123 4.32374C262.42 6.1816 265.132 8.92183 266.952 12.2356C268.932 15.8465 269.93 19.9121 269.847 24.0276C269.932 28.1325 268.934 32.1876 266.952 35.7853C265.125 39.087 262.415 41.8166 259.123 43.6696C255.788 45.5174 252.028 46.4659 248.214 46.4216H232.66V1.55116H248.214C252.031 1.50969 255.791 2.46552 259.123 4.32374V4.32374ZM255.581 39.4867C257.998 37.9896 259.944 35.8439 261.198 33.2948C262.611 30.4295 263.32 27.2692 263.265 24.0758C263.327 20.8707 262.618 17.6974 261.198 14.8224C259.933 12.2808 257.99 10.1378 255.581 8.63053C253.158 7.1393 250.358 6.37067 247.511 6.41522H239.241V41.7295H247.511C250.359 41.7571 253.157 40.9795 255.581 39.4867V39.4867Z" fill="#1F2DFF"></path> </svg> 